<svg class="icon" viewBox="0 0 1024 1024"  xmlns="http://www.w3.org/2000/svg" p-id="16453" width="1em" height="1em"><path d="M800.3 205.1L534.8 116c-16-5.4-33.3-5.3-49.2 0.2l-264.5 92.3c-29.3 10-49 37.5-49.1 68.4l1.7 265.4c0.7 81 31.1 158.9 85.6 218.9 25 27.7 56.9 51.5 97.8 72.7l144 74.6c9 4.7 19.7 4.6 28.7-0.2L672.5 832c40.4-21.6 72.2-45.7 96.9-73.8 53.6-60.6 83-138.9 82.6-219.8l-1.7-265.6c-0.5-30.9-20.5-58.1-50-67.7z" fill="#cdcdcd" p-id="16454"></path><path d="M474.1 652c-7.1 0-13.8-2.8-18.9-7.8l-151-151.1c-10.4-10.4-10.4-27.4 0-37.8s27.4-10.4 37.8 0l132.1 132.2 207.7-207.7c10.4-10.4 27.4-10.4 37.8 0 10.4 10.4 10.4 27.4 0 37.8L493 644.2c-5 5-11.8 7.8-18.9 7.8z" fill="#FFFFFF" p-id="16455"></path></svg>
